# xmcd CD database file
#
# Track frame offsets:
#	150
#	17835
#	35505
#	47902
#	67585
#	84002
#	103347
#	120705
#	139042
#	157655
#	176300
#
# Disc length: 2572 seconds
#
# Revision: 0
# Processed by: cddbd v1.5.1PL0 Copyright (c) Steve Scherf et al.
# Submitted via: CDex 1.51
#
DISCID=7d0a0a0b
DTITLE=CREATION - LONELY HEART
DYEAR=1900
DGENRE=Blues
TTITLE0=CARRY ON
TTITLE1=LONELY HEART
TTITLE2=HEART-BREAKER
TTITLE3=LADY
TTITLE4=TRY ME TONIGHT
TTITLE5=MID-NIGHT RAMBLER
TTITLE6=LONELY HEART(Japanese Version)
TTITLE7=MOVE ME
TTITLE8=NEW YORK WOMAN SERENADE
TTITLE9=HELLO アップル・ヒップ
TTITLE10=TIGHT ROPE
EXTD=
EXTT0=
EXTT1=
EXTT2=
EXTT3=
EXTT4=
EXTT5=
EXTT6=
EXTT7=
EXTT8=
EXTT9=
EXTT10=
PLAYORDER=
